<mxfile host="Electron" modified="2024-04-26T04:24:31.161Z" agent="Mozilla/5.0 (X11; Linux x86_64) AppleWebKit/537.36 (KHTML, like Gecko) draw.io/24.2.5 Chrome/120.0.6099.109 Electron/28.1.0 Safari/537.36" etag="r0JPxRrIsSkGTjsy_jjG" version="24.2.5" type="device">
  <diagram name="Page-1" id="0EYpuLRG4au_xbvCa_Wq">
    <mxGraphModel dx="1434" dy="835" grid="1" gridSize="10" guides="1" tooltips="1" connect="1" arrows="1" fold="1" page="1" pageScale="1" pageWidth="850" pageHeight="1100" math="0" shadow="0">
      <root>
        <mxCell id="0" />
        <mxCell id="1" parent="0" />
        <mxCell id="bqTwVYnTykRCSrmPNvEu-1" value="10" style="rounded=0;whiteSpace=wrap;html=1;shadow=0;strokeColor=#6c8ebf;strokeWidth=1;fontFamily=Ubuntu;fontSize=16;fontStyle=0;fillColor=#dae8fc;" vertex="1" parent="1">
          <mxGeometry x="350" y="320" width="40" height="40" as="geometry" />
        </mxCell>
        <mxCell id="bqTwVYnTykRCSrmPNvEu-2" value="3" style="rounded=0;whiteSpace=wrap;html=1;shadow=0;strokeColor=#6c8ebf;strokeWidth=1;fontFamily=Ubuntu;fontSize=16;fontStyle=0;fillColor=#dae8fc;" vertex="1" parent="1">
          <mxGeometry x="510" y="320" width="40" height="40" as="geometry" />
        </mxCell>
        <mxCell id="bqTwVYnTykRCSrmPNvEu-3" value="DivMod" style="rounded=0;whiteSpace=wrap;html=1;shadow=0;strokeColor=#264653;strokeWidth=1;fontFamily=Ubuntu;fontSize=16;fontStyle=0;fillColor=#2a9d8f;" vertex="1" parent="1">
          <mxGeometry x="420" y="325" width="70" height="30" as="geometry" />
        </mxCell>
        <mxCell id="bqTwVYnTykRCSrmPNvEu-8" value="" style="group" vertex="1" connectable="0" parent="1">
          <mxGeometry x="400" y="390" width="120" height="40" as="geometry" />
        </mxCell>
        <mxCell id="bqTwVYnTykRCSrmPNvEu-5" value="" style="rounded=0;whiteSpace=wrap;html=1;shadow=0;strokeColor=#6c8ebf;strokeWidth=1;fontFamily=Ubuntu;fontSize=16;fontStyle=0;fillColor=#dae8fc;" vertex="1" parent="bqTwVYnTykRCSrmPNvEu-8">
          <mxGeometry width="40" height="40" as="geometry" />
        </mxCell>
        <mxCell id="bqTwVYnTykRCSrmPNvEu-6" value="" style="rounded=0;whiteSpace=wrap;html=1;shadow=0;strokeColor=#6c8ebf;strokeWidth=1;fontFamily=Ubuntu;fontSize=16;fontStyle=0;fillColor=#dae8fc;" vertex="1" parent="bqTwVYnTykRCSrmPNvEu-8">
          <mxGeometry x="40" width="40" height="40" as="geometry" />
        </mxCell>
        <mxCell id="bqTwVYnTykRCSrmPNvEu-7" value="" style="rounded=0;whiteSpace=wrap;html=1;shadow=0;strokeColor=#6c8ebf;strokeWidth=1;fontFamily=Ubuntu;fontSize=16;fontStyle=0;fillColor=#dae8fc;" vertex="1" parent="bqTwVYnTykRCSrmPNvEu-8">
          <mxGeometry x="80" width="40" height="40" as="geometry" />
        </mxCell>
        <mxCell id="bqTwVYnTykRCSrmPNvEu-9" value="" style="group" vertex="1" connectable="0" parent="1">
          <mxGeometry x="400" y="490" width="120" height="40" as="geometry" />
        </mxCell>
        <mxCell id="bqTwVYnTykRCSrmPNvEu-10" value="" style="rounded=0;whiteSpace=wrap;html=1;shadow=0;strokeColor=#6c8ebf;strokeWidth=1;fontFamily=Ubuntu;fontSize=16;fontStyle=0;fillColor=#dae8fc;" vertex="1" parent="bqTwVYnTykRCSrmPNvEu-9">
          <mxGeometry width="40" height="40" as="geometry" />
        </mxCell>
        <mxCell id="bqTwVYnTykRCSrmPNvEu-11" value="" style="rounded=0;whiteSpace=wrap;html=1;shadow=0;strokeColor=#6c8ebf;strokeWidth=1;fontFamily=Ubuntu;fontSize=16;fontStyle=0;fillColor=#dae8fc;" vertex="1" parent="bqTwVYnTykRCSrmPNvEu-9">
          <mxGeometry x="40" width="40" height="40" as="geometry" />
        </mxCell>
        <mxCell id="bqTwVYnTykRCSrmPNvEu-12" value="" style="rounded=0;whiteSpace=wrap;html=1;shadow=0;strokeColor=#6c8ebf;strokeWidth=1;fontFamily=Ubuntu;fontSize=16;fontStyle=0;fillColor=#dae8fc;" vertex="1" parent="bqTwVYnTykRCSrmPNvEu-9">
          <mxGeometry x="80" width="40" height="40" as="geometry" />
        </mxCell>
        <mxCell id="bqTwVYnTykRCSrmPNvEu-13" value="" style="group" vertex="1" connectable="0" parent="1">
          <mxGeometry x="400" y="440" width="120" height="40" as="geometry" />
        </mxCell>
        <mxCell id="bqTwVYnTykRCSrmPNvEu-14" value="" style="rounded=0;whiteSpace=wrap;html=1;shadow=0;strokeColor=#6c8ebf;strokeWidth=1;fontFamily=Ubuntu;fontSize=16;fontStyle=0;fillColor=#dae8fc;" vertex="1" parent="bqTwVYnTykRCSrmPNvEu-13">
          <mxGeometry width="40" height="40" as="geometry" />
        </mxCell>
        <mxCell id="bqTwVYnTykRCSrmPNvEu-15" value="" style="rounded=0;whiteSpace=wrap;html=1;shadow=0;strokeColor=#6c8ebf;strokeWidth=1;fontFamily=Ubuntu;fontSize=16;fontStyle=0;fillColor=#dae8fc;" vertex="1" parent="bqTwVYnTykRCSrmPNvEu-13">
          <mxGeometry x="40" width="40" height="40" as="geometry" />
        </mxCell>
        <mxCell id="bqTwVYnTykRCSrmPNvEu-16" value="" style="rounded=0;whiteSpace=wrap;html=1;shadow=0;strokeColor=#6c8ebf;strokeWidth=1;fontFamily=Ubuntu;fontSize=16;fontStyle=0;fillColor=#dae8fc;" vertex="1" parent="bqTwVYnTykRCSrmPNvEu-13">
          <mxGeometry x="80" width="40" height="40" as="geometry" />
        </mxCell>
        <mxCell id="bqTwVYnTykRCSrmPNvEu-17" value="" style="rounded=0;whiteSpace=wrap;html=1;shadow=0;strokeColor=#d79b00;strokeWidth=1;fontFamily=Ubuntu;fontSize=16;fontStyle=0;fillColor=#ffe6cc;" vertex="1" parent="1">
          <mxGeometry x="400" y="560" width="40" height="40" as="geometry" />
        </mxCell>
        <mxCell id="bqTwVYnTykRCSrmPNvEu-18" value="商" style="text;html=1;align=center;verticalAlign=middle;whiteSpace=wrap;rounded=0;fontFamily=Ubuntu;fontSize=16;fontStyle=0;" vertex="1" parent="1">
          <mxGeometry x="320" y="445" width="60" height="30" as="geometry" />
        </mxCell>
        <mxCell id="bqTwVYnTykRCSrmPNvEu-19" value="余数" style="text;html=1;align=center;verticalAlign=middle;whiteSpace=wrap;rounded=0;fontFamily=Ubuntu;fontSize=16;fontStyle=0;" vertex="1" parent="1">
          <mxGeometry x="330" y="570" width="60" height="30" as="geometry" />
        </mxCell>
        <mxCell id="bqTwVYnTykRCSrmPNvEu-20" value="" style="shape=curlyBracket;whiteSpace=wrap;html=1;rounded=1;labelPosition=left;verticalLabelPosition=middle;align=right;verticalAlign=middle;shadow=0;strokeColor=#6c8ebf;strokeWidth=1;fontFamily=Ubuntu;fontSize=16;fontStyle=0;fillColor=#dae8fc;" vertex="1" parent="1">
          <mxGeometry x="370" y="400" width="20" height="120" as="geometry" />
        </mxCell>
      </root>
    </mxGraphModel>
  </diagram>
</mxfile>
